# xmcd
#
# Track frame offsets: 
#        150
#        14378
#        28188
#        45704
#        61246
#        85083
#        103223
#        117863
#        137926
#        159402
#        174426
#        195271
#
# Disc length: 2846 seconds
#
# Revision: 0
# Processed by: cddbd v1.5.2PL0 Copyright (c) Steve Scherf et al.
# Submitted via: ExactAudioCopy v0.99pb5
#
DISCID=980b1c0c
DTITLE=Tina Lie - Free Enough To Fall
DYEAR=2009
DGENRE=Blues
TTITLE0=Black Swan
TTITLE1=Twilight Hour
TTITLE2=Consumed
TTITLE3=Gambling With The Stars
TTITLE4=Do Right To Me Baby
TTITLE5=Pirate's Heart
TTITLE6=White Moth
TTITLE7=Solid Ground
TTITLE8=Freedom Child
TTITLE9=Home Ground
TTITLE10=Get It Right
TTITLE11=Winter Moon
EXTD=
EXTT0=
EXTT1=
EXTT2=
EXTT3=
EXTT4=
EXTT5=
EXTT6=
EXTT7=
EXTT8=
EXTT9=
EXTT10=
EXTT11=
PLAYORDER=
